<?xml version="1.0" encoding="utf-8" standalone="no"?>
<!DOCTYPE svg PUBLIC "-//W3C//DTD SVG 1.1//EN"
  "http://www.w3.org/Graphics/SVG/1.1/DTD/svg11.dtd">
<!-- Created with matplotlib (https://matplotlib.org/) -->
<svg height="248.518125pt" version="1.1" viewBox="0 0 381.65 248.518125" width="381.65pt" xmlns="http://www.w3.org/2000/svg" xmlns:xlink="http://www.w3.org/1999/xlink">
 <metadata>
  <rdf:RDF xmlns:cc="http://creativecommons.org/ns#" xmlns:dc="http://purl.org/dc/elements/1.1/" xmlns:rdf="http://www.w3.org/1999/02/22-rdf-syntax-ns#">
   <cc:Work>
    <dc:type rdf:resource="http://purl.org/dc/dcmitype/StillImage"/>
    <dc:date>2020-08-07T12:41:21.006703</dc:date>
    <dc:format>image/svg+xml</dc:format>
    <dc:creator>
     <cc:Agent>
      <dc:title>Matplotlib v3.3.0, https://matplotlib.org/</dc:title>
     </cc:Agent>
    </dc:creator>
   </cc:Work>
  </rdf:RDF>
 </metadata>
 <defs>
  <style type="text/css">*{stroke-linecap:butt;stroke-linejoin:round;}</style>
 </defs>
 <g id="figure_1">
  <g id="patch_1">
   <path d="M -0 248.518125 
L 381.65 248.518125 
L 381.65 0 
L -0 0 
z
" style="fill:none;"/>
  </g>
  <g id="axes_1">
   <g id="patch_2">
    <path d="M 39.65 224.64 
L 374.45 224.64 
L 374.45 7.2 
L 39.65 7.2 
z
" style="fill:#ffffff;"/>
   </g>
   <g id="matplotlib.axis_1">
    <g id="xtick_1">
     <g id="line2d_1">
      <defs>
       <path d="M 0 0 
L 0 3.5 
" id="m3b3fe80dac" style="stroke:#000000;stroke-width:0.8;"/>
      </defs>
      <g>
       <use style="stroke:#000000;stroke-width:0.8;" x="54.868182" xlink:href="#m3b3fe80dac" y="224.64"/>
      </g>
     </g>
     <g id="text_1">
      <!-- 0 -->
      <g transform="translate(51.686932 239.238437)scale(0.1 -0.1)">
       <defs>
        <path d="M 31.78125 66.40625 
Q 24.171875 66.40625 20.328125 58.90625 
Q 16.5 51.421875 16.5 36.375 
Q 16.5 21.390625 20.328125 13.890625 
Q 24.171875 6.390625 31.78125 6.390625 
Q 39.453125 6.390625 43.28125 13.890625 
Q 47.125 21.390625 47.125 36.375 
Q 47.125 51.421875 43.28125 58.90625 
Q 39.453125 66.40625 31.78125 66.40625 
z
M 31.78125 74.21875 
Q 44.046875 74.21875 50.515625 64.515625 
Q 56.984375 54.828125 56.984375 36.375 
Q 56.984375 17.96875 50.515625 8.265625 
Q 44.046875 -1.421875 31.78125 -1.421875 
Q 19.53125 -1.421875 13.0625 8.265625 
Q 6.59375 17.96875 6.59375 36.375 
Q 6.59375 54.828125 13.0625 64.515625 
Q 19.53125 74.21875 31.78125 74.21875 
z
" id="DejaVuSans-48"/>
       </defs>
       <use xlink:href="#DejaVuSans-48"/>
      </g>
     </g>
    </g>
    <g id="xtick_2">
     <g id="line2d_2">
      <g>
       <use style="stroke:#000000;stroke-width:0.8;" x="103.333729" xlink:href="#m3b3fe80dac" y="224.64"/>
      </g>
     </g>
     <g id="text_2">
      <!-- 200 -->
      <g transform="translate(93.789979 239.238437)scale(0.1 -0.1)">
       <defs>
        <path d="M 19.1875 8.296875 
L 53.609375 8.296875 
L 53.609375 0 
L 7.328125 0 
L 7.328125 8.296875 
Q 12.9375 14.109375 22.625 23.890625 
Q 32.328125 33.6875 34.8125 36.53125 
Q 39.546875 41.84375 41.421875 45.53125 
Q 43.3125 49.21875 43.3125 52.78125 
Q 43.3125 58.59375 39.234375 62.25 
Q 35.15625 65.921875 28.609375 65.921875 
Q 23.96875 65.921875 18.8125 64.3125 
Q 13.671875 62.703125 7.8125 59.421875 
L 7.8125 69.390625 
Q 13.765625 71.78125 18.9375 73 
Q 24.125 74.21875 28.421875 74.21875 
Q 39.75 74.21875 46.484375 68.546875 
Q 53.21875 62.890625 53.21875 53.421875 
Q 53.21875 48.921875 51.53125 44.890625 
Q 49.859375 40.875 45.40625 35.40625 
Q 44.1875 33.984375 37.640625 27.21875 
Q 31.109375 20.453125 19.1875 8.296875 
z
" id="DejaVuSans-50"/>
       </defs>
       <use xlink:href="#DejaVuSans-50"/>
       <use x="63.623047" xlink:href="#DejaVuSans-48"/>
       <use x="127.246094" xlink:href="#DejaVuSans-48"/>
      </g>
     </g>
    </g>
    <g id="xtick_3">
     <g id="line2d_3">
      <g>
       <use style="stroke:#000000;stroke-width:0.8;" x="151.799276" xlink:href="#m3b3fe80dac" y="224.64"/>
      </g>
     </g>
     <g id="text_3">
      <!-- 400 -->
      <g transform="translate(142.255526 239.238437)scale(0.1 -0.1)">
       <defs>
        <path d="M 37.796875 64.3125 
L 12.890625 25.390625 
L 37.796875 25.390625 
z
M 35.203125 72.90625 
L 47.609375 72.90625 
L 47.609375 25.390625 
L 58.015625 25.390625 
L 58.015625 17.1875 
L 47.609375 17.1875 
L 47.609375 0 
L 37.796875 0 
L 37.796875 17.1875 
L 4.890625 17.1875 
L 4.890625 26.703125 
z
" id="DejaVuSans-52"/>
       </defs>
       <use xlink:href="#DejaVuSans-52"/>
       <use x="63.623047" xlink:href="#DejaVuSans-48"/>
       <use x="127.246094" xlink:href="#DejaVuSans-48"/>
      </g>
     </g>
    </g>
    <g id="xtick_4">
     <g id="line2d_4">
      <g>
       <use style="stroke:#000000;stroke-width:0.8;" x="200.264823" xlink:href="#m3b3fe80dac" y="224.64"/>
      </g>
     </g>
     <g id="text_4">
      <!-- 600 -->
      <g transform="translate(190.721073 239.238437)scale(0.1 -0.1)">
       <defs>
        <path d="M 33.015625 40.375 
Q 26.375 40.375 22.484375 35.828125 
Q 18.609375 31.296875 18.609375 23.390625 
Q 18.609375 15.53125 22.484375 10.953125 
Q 26.375 6.390625 33.015625 6.390625 
Q 39.65625 6.390625 43.53125 10.953125 
Q 47.40625 15.53125 47.40625 23.390625 
Q 47.40625 31.296875 43.53125 35.828125 
Q 39.65625 40.375 33.015625 40.375 
z
M 52.59375 71.296875 
L 52.59375 62.3125 
Q 48.875 64.0625 45.09375 64.984375 
Q 41.3125 65.921875 37.59375 65.921875 
Q 27.828125 65.921875 22.671875 59.328125 
Q 17.53125 52.734375 16.796875 39.40625 
Q 19.671875 43.65625 24.015625 45.921875 
Q 28.375 48.1875 33.59375 48.1875 
Q 44.578125 48.1875 50.953125 41.515625 
Q 57.328125 34.859375 57.328125 23.390625 
Q 57.328125 12.15625 50.6875 5.359375 
Q 44.046875 -1.421875 33.015625 -1.421875 
Q 20.359375 -1.421875 13.671875 8.265625 
Q 6.984375 17.96875 6.984375 36.375 
Q 6.984375 53.65625 15.1875 63.9375 
Q 23.390625 74.21875 37.203125 74.21875 
Q 40.921875 74.21875 44.703125 73.484375 
Q 48.484375 72.75 52.59375 71.296875 
z
" id="DejaVuSans-54"/>
       </defs>
       <use xlink:href="#DejaVuSans-54"/>
       <use x="63.623047" xlink:href="#DejaVuSans-48"/>
       <use x="127.246094" xlink:href="#DejaVuSans-48"/>
      </g>
     </g>
    </g>
    <g id="xtick_5">
     <g id="line2d_5">
      <g>
       <use style="stroke:#000000;stroke-width:0.8;" x="248.730371" xlink:href="#m3b3fe80dac" y="224.64"/>
      </g>
     </g>
     <g id="text_5">
      <!-- 800 -->
      <g transform="translate(239.186621 239.238437)scale(0.1 -0.1)">
       <defs>
        <path d="M 31.78125 34.625 
Q 24.75 34.625 20.71875 30.859375 
Q 16.703125 27.09375 16.703125 20.515625 
Q 16.703125 13.921875 20.71875 10.15625 
Q 24.75 6.390625 31.78125 6.390625 
Q 38.8125 6.390625 42.859375 10.171875 
Q 46.921875 13.96875 46.921875 20.515625 
Q 46.921875 27.09375 42.890625 30.859375 
Q 38.875 34.625 31.78125 34.625 
z
M 21.921875 38.8125 
Q 15.578125 40.375 12.03125 44.71875 
Q 8.5 49.078125 8.5 55.328125 
Q 8.5 64.0625 14.71875 69.140625 
Q 20.953125 74.21875 31.78125 74.21875 
Q 42.671875 74.21875 48.875 69.140625 
Q 55.078125 64.0625 55.078125 55.328125 
Q 55.078125 49.078125 51.53125 44.71875 
Q 48 40.375 41.703125 38.8125 
Q 48.828125 37.15625 52.796875 32.3125 
Q 56.78125 27.484375 56.78125 20.515625 
Q 56.78125 9.90625 50.3125 4.234375 
Q 43.84375 -1.421875 31.78125 -1.421875 
Q 19.734375 -1.421875 13.25 4.234375 
Q 6.78125 9.90625 6.78125 20.515625 
Q 6.78125 27.484375 10.78125 32.3125 
Q 14.796875 37.15625 21.921875 38.8125 
z
M 18.3125 54.390625 
Q 18.3125 48.734375 21.84375 45.5625 
Q 25.390625 42.390625 31.78125 42.390625 
Q 38.140625 42.390625 41.71875 45.5625 
Q 45.3125 48.734375 45.3125 54.390625 
Q 45.3125 60.0625 41.71875 63.234375 
Q 38.140625 66.40625 31.78125 66.40625 
Q 25.390625 66.40625 21.84375 63.234375 
Q 18.3125 60.0625 18.3125 54.390625 
z
" id="DejaVuSans-56"/>
       </defs>
       <use xlink:href="#DejaVuSans-56"/>
       <use x="63.623047" xlink:href="#DejaVuSans-48"/>
       <use x="127.246094" xlink:href="#DejaVuSans-48"/>
      </g>
     </g>
    </g>
    <g id="xtick_6">
     <g id="line2d_6">
      <g>
       <use style="stroke:#000000;stroke-width:0.8;" x="297.195918" xlink:href="#m3b3fe80dac" y="224.64"/>
      </g>
     </g>
     <g id="text_6">
      <!-- 1000 -->
      <g transform="translate(284.470918 239.238437)scale(0.1 -0.1)">
       <defs>
        <path d="M 12.40625 8.296875 
L 28.515625 8.296875 
L 28.515625 63.921875 
L 10.984375 60.40625 
L 10.984375 69.390625 
L 28.421875 72.90625 
L 38.28125 72.90625 
L 38.28125 8.296875 
L 54.390625 8.296875 
L 54.390625 0 
L 12.40625 0 
z
" id="DejaVuSans-49"/>
       </defs>
       <use xlink:href="#DejaVuSans-49"/>
       <use x="63.623047" xlink:href="#DejaVuSans-48"/>
       <use x="127.246094" xlink:href="#DejaVuSans-48"/>
       <use x="190.869141" xlink:href="#DejaVuSans-48"/>
      </g>
     </g>
    </g>
    <g id="xtick_7">
     <g id="line2d_7">
      <g>
       <use style="stroke:#000000;stroke-width:0.8;" x="345.661465" xlink:href="#m3b3fe80dac" y="224.64"/>
      </g>
     </g>
     <g id="text_7">
      <!-- 1200 -->
      <g transform="translate(332.936465 239.238437)scale(0.1 -0.1)">
       <use xlink:href="#DejaVuSans-49"/>
       <use x="63.623047" xlink:href="#DejaVuSans-50"/>
       <use x="127.246094" xlink:href="#DejaVuSans-48"/>
       <use x="190.869141" xlink:href="#DejaVuSans-48"/>
      </g>
     </g>
    </g>
   </g>
   <g id="matplotlib.axis_2">
    <g id="ytick_1">
     <g id="line2d_8">
      <defs>
       <path d="M 0 0 
L -3.5 0 
" id="m5c1ea658c3" style="stroke:#000000;stroke-width:0.8;"/>
      </defs>
      <g>
       <use style="stroke:#000000;stroke-width:0.8;" x="39.65" xlink:href="#m5c1ea658c3" y="217.416776"/>
      </g>
     </g>
     <g id="text_8">
      <!-- 600 -->
      <g transform="translate(13.5625 221.215995)scale(0.1 -0.1)">
       <use xlink:href="#DejaVuSans-54"/>
       <use x="63.623047" xlink:href="#DejaVuSans-48"/>
       <use x="127.246094" xlink:href="#DejaVuSans-48"/>
      </g>
     </g>
    </g>
    <g id="ytick_2">
     <g id="line2d_9">
      <g>
       <use style="stroke:#000000;stroke-width:0.8;" x="39.65" xlink:href="#m5c1ea658c3" y="174.747765"/>
      </g>
     </g>
     <g id="text_9">
      <!-- 800 -->
      <g transform="translate(13.5625 178.546984)scale(0.1 -0.1)">
       <use xlink:href="#DejaVuSans-56"/>
       <use x="63.623047" xlink:href="#DejaVuSans-48"/>
       <use x="127.246094" xlink:href="#DejaVuSans-48"/>
      </g>
     </g>
    </g>
    <g id="ytick_3">
     <g id="line2d_10">
      <g>
       <use style="stroke:#000000;stroke-width:0.8;" x="39.65" xlink:href="#m5c1ea658c3" y="132.078754"/>
      </g>
     </g>
     <g id="text_10">
      <!-- 1000 -->
      <g transform="translate(7.2 135.877973)scale(0.1 -0.1)">
       <use xlink:href="#DejaVuSans-49"/>
       <use x="63.623047" xlink:href="#DejaVuSans-48"/>
       <use x="127.246094" xlink:href="#DejaVuSans-48"/>
       <use x="190.869141" xlink:href="#DejaVuSans-48"/>
      </g>
     </g>
    </g>
    <g id="ytick_4">
     <g id="line2d_11">
      <g>
       <use style="stroke:#000000;stroke-width:0.8;" x="39.65" xlink:href="#m5c1ea658c3" y="89.409743"/>
      </g>
     </g>
     <g id="text_11">
      <!-- 1200 -->
      <g transform="translate(7.2 93.208962)scale(0.1 -0.1)">
       <use xlink:href="#DejaVuSans-49"/>
       <use x="63.623047" xlink:href="#DejaVuSans-50"/>
       <use x="127.246094" xlink:href="#DejaVuSans-48"/>
       <use x="190.869141" xlink:href="#DejaVuSans-48"/>
      </g>
     </g>
    </g>
    <g id="ytick_5">
     <g id="line2d_12">
      <g>
       <use style="stroke:#000000;stroke-width:0.8;" x="39.65" xlink:href="#m5c1ea658c3" y="46.740732"/>
      </g>
     </g>
     <g id="text_12">
      <!-- 1400 -->
      <g transform="translate(7.2 50.539951)scale(0.1 -0.1)">
       <use xlink:href="#DejaVuSans-49"/>
       <use x="63.623047" xlink:href="#DejaVuSans-52"/>
       <use x="127.246094" xlink:href="#DejaVuSans-48"/>
       <use x="190.869141" xlink:href="#DejaVuSans-48"/>
      </g>
     </g>
    </g>
   </g>
   <g id="line2d_13">
    <path clip-path="url(#p1805991216)" d="M 54.868182 197.127662 
L 55.352837 205.731868 
L 55.595165 204.98516 
L 56.07982 204.31099 
L 56.322148 203.64322 
L 56.564476 205.149436 
L 56.806804 203.609085 
L 57.049131 204.342992 
L 57.291459 201.780717 
L 57.533787 202.450621 
L 57.776115 203.679488 
L 58.018442 203.94617 
L 58.26077 198.151718 
L 58.503098 197.902104 
L 58.745426 198.960296 
L 58.987753 198.350129 
L 59.230081 197.338873 
L 59.472409 198.48667 
L 59.714737 197.353807 
L 59.957064 200.460111 
L 60.44172 213.553098 
L 60.684047 214.756364 
L 60.926375 204.671543 
L 61.168703 202.917847 
L 61.653358 207.214616 
L 61.895686 211.110297 
L 62.138014 207.83545 
L 62.622669 211.238304 
L 62.864997 208.055195 
L 63.107325 208.155468 
L 63.59198 205.618795 
L 63.834308 206.222561 
L 64.076636 203.534414 
L 64.318964 203.438408 
L 64.561291 202.126336 
L 64.803619 204.419796 
L 65.045947 203.126925 
L 65.288274 206.06682 
L 65.530602 206.047618 
L 65.77293 205.702 
L 66.257585 212.243159 
L 66.499913 212.593045 
L 66.742241 209.230727 
L 66.984569 208.456284 
L 67.469224 202.124203 
L 67.711552 202.132737 
L 67.95388 202.482623 
L 68.196207 203.122658 
L 68.680863 201.110814 
L 68.923191 199.672868 
L 69.165518 200.261701 
L 69.407846 197.571419 
L 69.650174 197.080726 
L 69.892501 196.092938 
L 70.134829 200.349172 
L 70.377157 202.098602 
L 70.619485 200.105959 
L 70.861812 191.958311 
L 71.10414 189.442973 
L 71.346468 189.080286 
L 71.588796 188.205572 
L 71.831123 186.513745 
L 72.073451 188.105299 
L 72.315779 185.897178 
L 72.558107 185.666765 
L 73.042762 183.138626 
L 73.28509 182.940216 
L 73.527417 184.397362 
L 73.769745 183.652788 
L 74.012073 182.161506 
L 74.254401 184.021875 
L 74.496728 187.533535 
L 74.739056 185.325413 
L 74.981384 186.272665 
L 75.223712 183.279434 
L 75.466039 183.294368 
L 75.708367 179.654702 
L 75.950695 179.718705 
L 76.193023 181.227055 
L 76.43535 181.305992 
L 76.677678 180.727827 
L 76.920006 182.673534 
L 77.162334 178.206089 
L 77.404661 179.473358 
L 77.646989 181.532138 
L 77.889317 179.183209 
L 78.131644 180.510215 
L 78.373972 180.051524 
L 78.6163 182.737538 
L 78.858628 183.273034 
L 79.100955 185.325413 
L 79.343283 182.739671 
L 79.585611 183.262367 
L 79.827939 179.742173 
L 80.070266 181.184386 
L 80.312594 183.953605 
L 80.554922 183.110892 
L 80.79725 181.760417 
L 81.039577 181.466001 
L 81.281905 182.035633 
L 81.766561 176.03637 
L 82.008888 176.817213 
L 82.251216 179.439223 
L 82.493544 183.401041 
L 82.735871 182.95515 
L 82.978199 183.424509 
L 83.462855 189.487775 
L 83.705182 189.02695 
L 83.94751 186.409206 
L 84.189838 191.907108 
L 84.432166 189.38537 
L 84.674493 193.844281 
L 84.916821 192.011647 
L 85.159149 192.122587 
L 85.401477 190.392358 
L 85.643804 186.383605 
L 85.886132 188.90961 
L 86.12846 188.873342 
L 86.370787 192.331665 
L 86.613115 185.777705 
L 87.097771 180.983841 
L 87.340098 178.820523 
L 87.824754 189.675519 
L 88.067082 195.280094 
L 88.309409 195.194756 
L 88.551737 195.864659 
L 88.794065 194.620857 
L 89.036393 194.725396 
L 89.27872 194.612324 
L 89.763376 189.26163 
L 90.005704 192.346599 
L 90.248031 191.365212 
L 90.490359 189.884597 
L 90.732687 192.393535 
L 90.975014 191.623359 
L 91.217342 189.869663 
L 91.45967 190.778513 
L 91.701998 192.408469 
L 91.944325 187.08551 
L 92.186653 187.659408 
L 92.428981 189.342701 
L 92.671309 189.634983 
L 92.913636 193.351454 
L 93.155964 193.195712 
L 93.882947 186.509478 
L 94.125275 185.363815 
L 94.367603 185.293412 
L 94.609931 183.844799 
L 94.852258 183.605852 
L 95.094586 184.260821 
L 95.336914 182.820742 
L 96.306225 184.715246 
L 96.548552 182.024965 
L 96.79088 181.50227 
L 97.033208 182.662867 
L 97.275536 181.218521 
L 97.760191 183.586651 
L 98.002519 181.559873 
L 98.244847 183.255966 
L 98.487174 183.394641 
L 98.729502 183.806397 
L 99.456485 179.998187 
L 99.698813 179.014667 
L 99.941141 177.376177 
L 100.183468 179.814711 
L 100.425796 180.098459 
L 100.668124 179.014667 
L 100.910452 188.024228 
L 101.152779 187.076976 
L 101.395107 190.669707 
L 101.637435 191.503886 
L 101.879763 195.002745 
L 102.12209 194.401112 
L 102.364418 193.007969 
L 102.606746 194.281639 
L 103.091401 192.943965 
L 103.333729 190.710242 
L 103.576057 189.86753 
L 103.818384 187.680743 
L 104.060712 189.56458 
L 104.545368 190.784913 
L 104.787695 189.617916 
L 105.030023 191.774834 
L 105.272351 191.435616 
L 105.514679 192.815958 
L 105.757006 191.45055 
L 105.999334 192.402069 
L 106.241662 189.035484 
L 106.48399 187.953824 
L 106.726317 188.203438 
L 106.968645 185.927046 
L 107.210973 185.660365 
L 107.453301 185.74357 
L 107.695628 186.637485 
L 108.180284 189.669119 
L 108.422611 189.449373 
L 108.664939 186.923368 
L 108.907267 187.010839 
L 109.149595 189.001349 
L 109.391922 189.280831 
L 109.63425 188.988548 
L 109.876578 189.214694 
L 110.118906 190.908653 
L 110.361233 195.175554 
L 111.088217 193.848548 
L 111.330544 192.90983 
L 111.572872 199.239778 
L 111.8152 200.105959 
L 112.057528 197.946907 
L 112.299855 197.108461 
L 112.784511 193.895484 
L 113.026838 195.039014 
L 113.269166 194.168566 
L 113.511494 194.533386 
L 113.996149 190.279285 
L 114.238477 189.146423 
L 114.480805 189.792859 
L 114.723133 188.444518 
L 114.96546 188.480787 
L 115.207788 184.732314 
L 115.450116 184.687512 
L 115.692444 183.904535 
L 115.934771 184.474167 
L 116.177099 183.435176 
L 116.419427 183.810663 
L 116.661754 183.782929 
L 117.14641 182.035633 
L 117.388738 176.595334 
L 117.631065 174.547221 
L 118.115721 174.978178 
L 118.358049 175.334464 
L 118.600376 173.269284 
L 118.842704 173.631971 
L 119.085032 173.151944 
L 119.32736 172.936466 
L 119.569687 172.998336 
L 120.054343 173.476229 
L 120.296671 174.493885 
L 120.538998 173.591435 
L 121.265981 175.398468 
L 121.508309 175.475272 
L 121.992965 176.603867 
L 122.47762 175.639548 
L 122.962276 176.913218 
L 123.204603 176.582533 
L 123.446931 175.415535 
L 123.689259 173.036738 
L 123.931587 173.043138 
L 124.173914 174.141866 
L 124.416242 177.205501 
L 124.65857 174.999513 
L 124.900898 177.154298 
L 125.143225 176.783077 
L 125.385553 174.485351 
L 125.870208 175.731286 
L 126.354864 173.67464 
L 126.597192 171.344912 
L 126.839519 171.556123 
L 127.081847 174.182401 
L 127.324175 172.458573 
L 127.566503 172.601514 
L 127.80883 174.184535 
L 128.051158 173.881585 
L 128.293486 174.666694 
L 128.535814 174.152533 
L 128.778141 174.485351 
L 129.020469 174.090663 
L 129.262797 174.59629 
L 129.505124 171.724666 
L 129.747452 172.706053 
L 129.98978 172.236694 
L 130.232108 173.877318 
L 130.474435 173.766378 
L 130.716763 173.288485 
L 130.959091 170.16298 
L 131.201419 168.968248 
L 131.443746 170.133112 
L 131.686074 169.614683 
L 131.928402 167.122813 
L 132.655385 171.046229 
L 132.897713 170.574736 
L 133.140041 172.635649 
L 133.382368 173.578635 
L 133.624696 177.218301 
L 133.867024 178.547441 
L 134.109351 178.779987 
L 134.351679 174.314675 
L 134.594007 172.191892 
L 134.836335 173.555167 
L 135.078662 178.952797 
L 135.32099 180.774763 
L 135.563318 184.728047 
L 135.805646 180.047257 
L 136.290301 177.700461 
L 136.532629 179.874447 
L 136.774957 177.99061 
L 137.017284 177.947941 
L 137.259612 179.228012 
L 137.50194 178.965597 
L 137.986595 177.000689 
L 138.471251 182.357784 
L 138.713578 182.330049 
L 138.955906 179.394421 
L 139.198234 179.829645 
L 139.440562 176.567599 
L 139.682889 175.778222 
L 139.925217 172.731655 
L 140.167545 173.06234 
L 140.409873 171.475052 
L 140.6522 170.931022 
L 140.894528 171.408915 
L 141.136856 172.64845 
L 141.621511 171.504921 
L 142.106167 172.682585 
L 142.348494 173.083674 
L 142.590822 172.629249 
L 142.83315 173.772779 
L 143.075478 174.133332 
L 143.317805 176.358521 
L 143.560133 173.038872 
L 143.802461 173.090074 
L 144.044789 171.970013 
L 144.287116 169.369337 
L 144.529444 168.949047 
L 144.771772 169.198661 
L 145.0141 168.377282 
L 145.256427 168.447686 
L 145.498755 168.146869 
L 145.741083 168.88931 
L 145.983411 168.556492 
L 146.225738 169.548546 
L 146.468066 168.737835 
L 146.710394 165.268845 
L 146.952721 164.180785 
L 147.195049 162.277747 
L 147.437377 162.591364 
L 147.679705 165.140838 
L 147.922032 169.663753 
L 148.406688 171.496387 
L 148.891343 170.45313 
L 149.133671 170.135245 
L 149.375999 168.51169 
L 149.860654 168.334613 
L 150.34531 166.435842 
L 150.587638 166.207563 
L 150.829965 166.785728 
L 151.314621 164.816553 
L 151.799276 163.790363 
L 152.041604 163.867168 
L 152.283932 164.547738 
L 152.526259 164.150917 
L 152.768587 165.162172 
L 153.010915 162.640434 
L 153.253243 164.112514 
L 153.49557 164.27679 
L 153.737898 164.662945 
L 154.707209 161.647312 
L 154.949537 160.969942 
L 155.191865 160.686193 
L 155.918848 159.307984 
L 156.161175 160.259503 
L 156.403503 164.050644 
L 156.645831 164.123182 
L 156.888159 166.288634 
L 157.130486 167.25082 
L 157.615142 166.079556 
L 157.85747 164.108248 
L 158.099797 164.191452 
L 158.342125 164.549872 
L 158.584453 162.640434 
L 159.311436 165.12697 
L 159.553764 165.765939 
L 159.796091 165.851277 
L 160.038419 166.239565 
L 160.280747 165.902479 
L 160.523075 166.175561 
L 160.765402 162.986053 
L 161.00773 163.229266 
L 161.492386 161.929995 
L 161.734713 162.171074 
L 161.977041 157.90844 
L 162.219369 155.794191 
L 162.461697 155.730187 
L 162.704024 155.239494 
L 162.946352 148.182039 
L 163.18868 146.411275 
L 163.431008 145.500292 
L 163.915663 141.739019 
L 164.157991 142.686271 
L 164.400318 140.892039 
L 164.884974 141.713417 
L 165.127302 141.489405 
L 165.369629 141.649414 
L 165.854285 139.629036 
L 166.096613 144.416499 
L 166.33894 142.639335 
L 166.581268 141.753953 
L 167.065924 138.361766 
L 167.308251 136.85555 
L 167.550579 133.815383 
L 167.792907 133.514567 
L 168.035235 132.895866 
L 168.277562 134.833039 
L 168.51989 134.577025 
L 169.004545 131.250976 
L 169.246873 132.78706 
L 169.731529 131.165638 
L 169.973856 138.453505 
L 170.216184 140.226402 
L 170.458512 138.372434 
L 170.70084 138.92073 
L 170.943167 140.574155 
L 171.185495 140.906973 
L 171.427823 137.365445 
L 171.670151 138.694585 
L 171.912478 136.646472 
L 172.154806 137.066762 
L 172.397134 135.046384 
L 172.639461 138.033215 
L 172.881789 143.153496 
L 173.124117 140.397078 
L 173.366445 145.34455 
L 173.8511 149.261565 
L 174.093428 146.530748 
L 174.335756 147.505735 
L 174.820411 142.532662 
L 175.062739 141.992899 
L 175.305067 138.978334 
L 175.547394 138.724453 
L 175.789722 137.004892 
L 176.03205 137.20757 
L 176.274378 134.862907 
L 176.516705 133.621239 
L 176.759033 133.744979 
L 177.001361 133.39296 
L 177.243688 132.439308 
L 177.486016 138.686051 
L 177.728344 139.479694 
L 177.970672 142.210511 
L 178.212999 140.968843 
L 178.455327 143.70606 
L 178.939983 143.249502 
L 179.18231 144.815454 
L 179.424638 143.64419 
L 179.666966 143.652724 
L 179.909294 143.985542 
L 180.151621 144.86239 
L 180.393949 148.38045 
L 180.878605 145.107737 
L 181.120932 145.28908 
L 181.36326 143.968474 
L 181.605588 147.512136 
L 181.847915 147.827886 
L 182.090243 148.960749 
L 182.332571 144.79412 
L 182.574899 144.329028 
L 183.301882 147.411864 
L 183.786537 144.105015 
L 184.028865 141.628079 
L 184.271193 142.321451 
L 184.513521 144.563707 
L 184.755848 144.448501 
L 184.998176 142.769475 
L 185.240504 144.578641 
L 185.482831 144.177553 
L 185.967487 142.652135 
L 186.209815 144.851723 
L 186.69447 147.066245 
L 186.936798 145.549361 
L 187.179126 143.270836 
L 187.421453 143.268703 
L 187.663781 144.183953 
L 187.906109 146.099791 
L 188.148437 145.427755 
L 188.390764 140.633891 
L 188.633092 139.586367 
L 188.87542 137.685463 
L 189.117748 139.018869 
L 189.360075 138.035348 
L 189.602403 139.166077 
L 189.844731 135.238395 
L 190.087058 133.435629 
L 190.329386 133.719378 
L 190.571714 134.681564 
L 190.814042 130.873355 
L 191.056369 130.873355 
L 191.541025 130.083978 
L 192.02568 129.360738 
L 192.268008 131.6862 
L 192.510336 130.997095 
L 192.752664 135.163724 
L 193.237319 133.900721 
L 193.479647 133.909255 
L 193.721975 124.895426 
L 194.20663 125.029834 
L 194.448958 122.990255 
L 194.691285 122.911317 
L 194.933613 121.413635 
L 195.175941 122.973188 
L 195.660596 119.642871 
L 195.902924 121.897928 
L 196.38758 123.288938 
L 196.629907 123.195066 
L 196.872235 124.310861 
L 197.114563 121.73792 
L 197.356891 124.4218 
L 197.599218 124.684215 
L 197.841546 121.347498 
L 198.083874 121.001879 
L 198.326202 120.020492 
L 198.568529 116.715777 
L 198.810857 118.576146 
L 199.053185 124.103916 
L 199.295512 124.362064 
L 199.780168 129.546349 
L 200.022496 127.897191 
L 200.507151 122.569965 
L 200.991807 120.991212 
L 201.234134 121.673916 
L 201.476462 121.114952 
L 201.71879 119.817814 
L 202.203445 113.925224 
L 202.930428 116.963257 
L 203.415084 118.029983 
L 203.899739 120.142099 
L 204.142067 120.686129 
L 204.626723 112.553415 
L 204.86905 111.648832 
L 205.111378 108.548928 
L 205.353706 107.712616 
L 205.596034 108.015566 
L 205.838361 108.58093 
L 206.080689 108.173441 
L 206.323017 104.205223 
L 206.565345 104.194556 
L 206.807672 102.402457 
L 207.05 103.070227 
L 207.292328 101.463739 
L 207.776983 94.493756 
L 208.019311 95.53488 
L 208.261639 93.220086 
L 208.503966 92.063756 
L 208.746294 92.294169 
L 208.988622 94.237742 
L 209.23095 93.203019 
L 209.473277 93.337426 
L 209.957933 118.768156 
L 210.200261 114.066031 
L 210.442588 120.257305 
L 210.684916 130.433864 
L 210.927244 122.207279 
L 211.169572 120.438648 
L 211.411899 120.528253 
L 211.896555 112.58755 
L 212.138882 111.704302 
L 212.623538 107.810754 
L 212.865866 108.632133 
L 213.350521 101.42107 
L 213.592849 107.008577 
L 213.835177 109.907936 
L 214.077504 116.843784 
L 214.56216 111.862177 
L 214.804488 110.552238 
L 215.289143 104.476171 
L 215.531471 97.764336 
L 215.773798 96.678409 
L 216.016126 102.229648 
L 216.258454 100.313809 
L 216.500782 99.946856 
L 216.743109 103.400912 
L 216.985437 110.729315 
L 217.227765 111.640298 
L 217.470093 112.024319 
L 217.954748 126.414443 
L 218.197076 120.53892 
L 218.439404 130.59814 
L 218.681731 130.973627 
L 218.924059 124.155119 
L 219.166387 129.384206 
L 219.408715 128.093469 
L 219.651042 125.740273 
L 219.89337 125.115172 
L 220.135698 129.955971 
L 220.378025 127.792652 
L 220.620353 124.29166 
L 220.862681 126.732327 
L 221.105009 124.123117 
L 221.347336 124.389799 
L 221.589664 122.243547 
L 221.831992 115.147691 
L 222.07432 115.994671 
L 222.316647 112.995039 
L 222.558975 115.582915 
L 222.801303 116.331756 
L 223.043631 127.248622 
L 223.285958 127.173952 
L 223.528286 122.83878 
L 224.012942 128.114803 
L 224.255269 123.384943 
L 224.497597 126.521116 
L 224.739925 126.46778 
L 224.982252 121.198157 
L 225.22458 119.393257 
L 225.466908 119.578868 
L 225.951563 109.577252 
L 226.193891 110.023143 
L 226.436219 109.336172 
L 226.678547 113.97216 
L 226.920874 114.138569 
L 227.163202 114.742335 
L 227.40553 117.221405 
L 227.647858 114.155636 
L 227.890185 116.011738 
L 228.132513 113.739614 
L 228.374841 113.84842 
L 228.617169 114.140702 
L 228.859496 117.556357 
L 229.101824 115.550913 
L 229.344152 110.744249 
L 229.586479 103.277172 
L 229.828807 99.428427 
L 230.071135 99.859384 
L 230.313463 100.727699 
L 230.55579 103.400912 
L 230.798118 103.765732 
L 231.282774 100.463151 
L 231.525101 101.307997 
L 231.767429 97.920078 
L 232.009757 98.099288 
L 232.252085 92.912869 
L 232.494412 93.956127 
L 232.73674 92.80833 
L 232.979068 95.929568 
L 233.221395 95.96157 
L 233.463723 102.364055 
L 233.706051 103.784933 
L 233.948379 107.130184 
L 234.190706 105.030868 
L 234.433034 104.516707 
L 234.675362 101.760289 
L 234.91769 107.270991 
L 235.402345 98.993203 
L 235.644673 96.390394 
L 235.887001 96.420262 
L 236.129328 95.498611 
L 236.371656 89.140929 
L 236.613984 88.466758 
L 236.856312 90.154318 
L 237.098639 86.61919 
L 237.340967 86.655459 
L 237.583295 89.601754 
L 237.825622 89.862035 
L 238.06795 87.062948 
L 238.310278 77.003729 
L 238.552606 73.20832 
L 238.794933 71.168741 
L 239.279589 83.000858 
L 239.521917 83.602491 
L 240.006572 80.634861 
L 240.2489 81.268496 
L 240.491228 81.373035 
L 240.733555 77.496556 
L 241.218211 75.657521 
L 241.460539 78.206995 
L 241.702866 79.03264 
L 241.945194 77.005862 
L 242.187522 82.535766 
L 242.672177 86.028224 
L 242.914505 84.72682 
L 243.156833 85.695406 
L 243.39916 84.769489 
L 243.641488 84.895362 
L 244.126144 77.404817 
L 244.368471 79.625739 
L 244.610799 75.616986 
L 244.853127 77.795239 
L 245.337782 86.996811 
L 246.064765 94.190806 
L 246.307093 94.730569 
L 246.549421 91.545327 
L 246.791749 95.468743 
L 247.034076 93.220086 
L 247.276404 94.107602 
L 247.518732 97.979814 
L 248.003387 94.899112 
L 248.245715 91.208242 
L 248.488043 95.357804 
L 248.730371 93.770516 
L 248.972698 90.713282 
L 249.215026 90.677013 
L 249.457354 87.839524 
L 249.699682 87.89926 
L 249.942009 87.58991 
L 250.184337 87.779787 
L 250.426665 86.949875 
L 250.668992 94.301746 
L 251.395976 101.107453 
L 251.638303 112.416874 
L 251.880631 112.719824 
L 252.122959 106.362142 
L 252.365287 110.223687 
L 252.607614 103.686795 
L 252.849942 104.858059 
L 253.09227 111.19014 
L 253.576925 108.318516 
L 253.819253 107.563274 
L 254.061581 119.892485 
L 254.303909 109.97834 
L 254.546236 114.211106 
L 254.788564 124.669281 
L 255.030892 121.516041 
L 255.273219 112.753959 
L 255.515547 113.735347 
L 256.000203 120.189035 
L 256.24253 117.236339 
L 256.484858 108.986286 
L 256.969514 115.646918 
L 257.211841 121.548043 
L 257.454169 121.844592 
L 257.696497 120.434381 
L 257.938825 116.920588 
L 258.181152 117.513688 
L 258.42348 126.228833 
L 258.665808 125.582398 
L 258.908135 122.813179 
L 259.150463 125.657068 
L 259.392791 120.144232 
L 259.635119 120.925075 
L 259.877446 112.495812 
L 260.119774 111.900579 
L 260.362102 108.685469 
L 260.60443 107.253924 
L 260.846757 118.751089 
L 261.089085 115.420773 
L 261.331413 122.141142 
L 261.816068 118.926032 
L 262.058396 116.348824 
L 262.300724 116.389359 
L 262.785379 126.606454 
L 263.027707 122.817446 
L 263.270035 124.513539 
L 263.512362 127.048078 
L 263.75469 133.945524 
L 263.997018 135.349334 
L 264.239346 121.870194 
L 264.481673 120.792801 
L 264.724001 122.119807 
L 264.966329 122.486761 
L 265.208657 120.413047 
L 265.450984 126.644856 
L 265.693312 115.422906 
L 265.93564 115.881598 
L 266.177968 113.865487 
L 266.662623 115.260764 
L 267.147279 121.089351 
L 267.389606 113.622274 
L 267.631934 112.982239 
L 268.116589 109.18683 
L 268.358917 115.303433 
L 268.601245 114.070298 
L 268.843573 114.15777 
L 269.0859 110.422098 
L 269.328228 115.041018 
L 269.570556 117.1318 
L 270.055211 105.220745 
L 270.297539 106.771764 
L 270.539867 101.907497 
L 270.782195 99.678041 
L 271.26685 109.48338 
L 271.509178 110.236488 
L 271.751506 110.291957 
L 271.993833 104.860192 
L 272.478489 104.514573 
L 272.720816 106.556286 
L 272.963144 105.088472 
L 273.205472 106.351474 
L 273.4478 109.846066 
L 273.690127 107.211255 
L 273.932455 107.046979 
L 274.174783 106.048524 
L 274.417111 105.860781 
L 274.659438 105.079938 
L 274.901766 100.392747 
L 275.144094 99.347356 
L 275.386422 95.982905 
L 275.628749 96.889621 
L 275.871077 99.895653 
L 276.113405 100.083397 
L 276.59806 89.996442 
L 276.840388 89.610288 
L 277.082716 91.003431 
L 277.567371 91.852544 
L 277.809699 88.884915 
L 278.052027 83.771034 
L 278.294354 81.701587 
L 278.536682 87.777654 
L 279.263665 94.101201 
L 279.505993 95.325802 
L 279.748321 94.340148 
L 279.990649 89.627355 
L 280.717632 85.260182 
L 280.959959 86.966943 
L 281.202287 87.643246 
L 281.444615 88.835845 
L 281.92927 87.363764 
L 282.171598 84.56041 
L 282.656254 82.601903 
L 282.898581 80.846073 
L 283.140909 80.562324 
L 283.625565 74.349716 
L 283.867892 76.598373 
L 284.352548 72.892569 
L 284.594876 68.885949 
L 284.837203 89.631622 
L 285.079531 95.10179 
L 285.321859 96.554669 
L 285.564186 91.639199 
L 285.806514 90.80502 
L 286.29117 95.643686 
L 286.533497 96.243186 
L 286.775825 96.313589 
L 287.018153 102.937953 
L 287.260481 105.440491 
L 287.502808 95.639419 
L 287.745136 92.716592 
L 287.987464 96.070376 
L 288.229792 101.216259 
L 288.472119 99.129744 
L 288.714447 98.828928 
L 289.199102 102.506996 
L 289.44143 102.304319 
L 289.683758 106.490149 
L 289.926086 106.176531 
L 290.168413 109.357506 
L 290.410741 123.813767 
L 290.653069 120.453582 
L 290.895397 122.555031 
L 291.137724 121.889395 
L 291.62238 114.422318 
L 292.107035 115.203161 
L 292.349363 112.662221 
L 292.591691 113.667076 
L 292.834019 112.047787 
L 293.076346 109.626321 
L 293.318674 109.782063 
L 293.803329 105.331685 
L 294.045657 107.181387 
L 294.287985 113.393995 
L 294.530313 114.94288 
L 294.77264 115.730123 
L 295.014968 114.413784 
L 295.499624 108.056101 
L 295.984279 103.776399 
L 296.226607 107.162185 
L 296.468935 105.562098 
L 296.711262 102.016303 
L 296.95359 101.339999 
L 297.195918 101.071184 
L 297.680573 99.338822 
L 297.922901 100.772501 
L 298.165229 100.665829 
L 298.407556 104.013212 
L 298.892212 100.493019 
L 299.13454 102.26805 
L 299.376867 103.076628 
L 299.619195 79.76228 
L 299.861523 80.483386 
L 300.346178 85.526863 
L 300.588506 86.896539 
L 300.830834 90.194853 
L 301.073162 99.063607 
L 301.315489 95.579682 
L 301.557817 94.549226 
L 301.800145 88.089138 
L 302.2848 94.850042 
L 302.527128 90.107382 
L 302.769456 97.036829 
L 303.011783 95.95517 
L 303.254111 93.845187 
L 303.496439 89.315872 
L 303.738767 92.923537 
L 303.981094 91.206109 
L 304.223422 91.21891 
L 304.46575 99.313221 
L 304.708078 95.558348 
L 304.950405 95.635152 
L 305.192733 95.010051 
L 305.435061 90.638611 
L 305.677389 91.430121 
L 305.919716 95.9061 
L 306.162044 93.192351 
L 306.404372 86.809067 
L 306.646699 88.061403 
L 306.889027 88.285415 
L 307.131355 88.193677 
L 307.61601 81.949067 
L 307.858338 80.869541 
L 308.100666 82.661639 
L 308.342994 83.034993 
L 308.585321 82.444027 
L 308.827649 81.142623 
L 309.069977 83.043527 
L 309.312305 82.008804 
L 309.554632 85.499129 
L 309.79696 79.608672 
L 310.039288 80.387381 
L 310.281616 83.873439 
L 310.523943 84.899629 
L 310.766271 88.129673 
L 311.008599 94.120402 
L 311.250926 91.664801 
L 311.493254 87.071482 
L 311.735582 87.649647 
L 311.97791 91.515459 
L 312.462565 87.389366 
L 312.704893 86.058093 
L 312.947221 85.618602 
L 313.189548 80.398048 
L 313.431876 80.235906 
L 313.674204 78.145125 
L 313.916532 79.93509 
L 314.158859 79.962824 
L 314.401187 80.619927 
L 314.643515 77.114668 
L 314.885843 76.798917 
L 315.12817 75.691656 
L 315.370498 70.4263 
L 315.612826 76.468232 
L 315.855153 76.459699 
L 316.097481 76.865054 
L 316.582137 70.291893 
L 316.824464 69.901472 
L 317.066792 69.99321 
L 317.30912 66.594623 
L 317.551448 66.155132 
L 317.793775 68.442191 
L 318.278431 68.890216 
L 318.520759 66.123131 
L 318.763086 60.919645 
L 319.005414 63.842472 
L 319.247742 65.389224 
L 319.490069 67.678416 
L 319.732397 68.04537 
L 319.974725 69.425712 
L 320.45938 65.301752 
L 320.701708 65.487362 
L 320.944036 67.202657 
L 321.186364 70.451902 
L 321.428691 69.197433 
L 321.671019 64.034483 
L 321.913347 62.323455 
L 322.155675 59.671576 
L 322.398002 58.903534 
L 322.64033 58.924869 
L 322.882658 58.634719 
L 323.124986 57.730136 
L 323.367313 58.075755 
L 323.609641 55.125193 
L 323.851969 56.364728 
L 324.094296 57.000496 
L 324.336624 56.034043 
L 324.578952 57.147704 
L 324.82128 57.273578 
L 325.063607 58.596317 
L 325.305935 54.747572 
L 325.548263 56.418064 
L 325.790591 59.603306 
L 326.032918 59.671576 
L 326.275246 53.4227 
L 326.517574 54.95025 
L 326.759902 47.207958 
L 327.002229 47.78399 
L 327.244557 45.665473 
L 327.729213 40.56226 
L 327.97154 38.20053 
L 328.213868 40.214507 
L 328.698523 36.039345 
L 328.940851 29.775534 
L 329.425507 28.783479 
L 329.667834 28.67254 
L 329.910162 32.62369 
L 330.15249 39.971294 
L 330.394818 35.966807 
L 330.637145 34.644068 
L 330.879473 35.166763 
L 331.121801 39.747282 
L 331.364129 29.118431 
L 331.606456 37.052734 
L 331.848784 36.916193 
L 332.091112 30.532909 
L 332.333439 29.863005 
L 332.575767 23.558659 
L 332.818095 23.259976 
L 333.060423 21.431609 
L 333.30275 22.549537 
L 333.545078 21.410274 
L 333.787406 21.258799 
L 334.029734 20.100335 
L 334.272061 21.781494 
L 334.514389 28.934954 
L 334.756717 42.5037 
L 334.999045 49.659293 
L 335.241372 48.773911 
L 335.4837 64.885729 
L 335.726028 59.701445 
L 335.968356 49.659293 
L 336.210683 60.027862 
L 336.453011 50.666281 
L 336.695339 64.926265 
L 336.937666 68.984088 
L 337.179994 86.041025 
L 337.422322 73.372596 
L 337.66465 87.084282 
L 337.906977 108.280114 
L 338.149305 86.36531 
L 338.391633 116.504565 
L 338.633961 106.891237 
L 338.876288 112.623819 
L 339.118616 108.254512 
L 339.360944 117.526488 
L 339.603272 120.530387 
L 339.845599 104.341764 
L 340.087927 110.39863 
L 340.330255 97.320578 
L 340.572583 108.555329 
L 340.81491 100.864239 
L 341.057238 97.527523 
L 341.299566 110.296224 
L 341.541893 107.110983 
L 341.784221 112.301668 
L 342.026549 92.996074 
L 342.268877 93.130481 
L 342.511204 87.916328 
L 342.753532 88.008066 
L 342.99586 87.188821 
L 343.238188 75.493246 
L 343.480515 77.185072 
L 343.722843 77.157337 
L 343.965171 72.555484 
L 344.207499 76.363693 
L 344.449826 86.815468 
L 344.692154 76.948259 
L 344.934482 74.225976 
L 345.176809 73.067512 
L 345.419137 74.292113 
L 345.661465 82.456828 
L 345.903793 59.076344 
L 346.14612 58.112024 
L 346.388448 64.380102 
L 346.630776 63.189636 
L 346.873104 57.617063 
L 347.115431 58.382972 
L 347.600087 50.081716 
L 347.842415 45.974824 
L 348.32707 57.764271 
L 348.569398 55.944438 
L 349.054053 49.902506 
L 349.296381 52.202366 
L 349.538709 44.786492 
L 349.781036 45.300653 
L 350.265692 42.181549 
L 350.50802 42.414095 
L 350.750347 42.849319 
L 350.992675 39.589406 
L 351.235003 39.30139 
L 351.477331 37.714103 
L 351.719658 38.366939 
L 351.961986 43.689898 
L 352.204314 38.202663 
L 352.446642 36.491636 
L 352.688969 35.629722 
L 352.931297 32.937307 
L 353.173625 46.335377 
L 353.65828 42.315956 
L 353.900608 36.826588 
L 354.142936 35.531583 
L 354.385263 39.461399 
L 354.627591 41.48391 
L 354.869919 35.932672 
L 355.112247 33.090916 
L 355.354574 39.764349 
L 355.596902 37.972251 
L 355.83923 54.732638 
L 356.323885 42.889854 
L 357.050869 25.480898 
L 357.293196 27.556745 
L 357.777852 21.425208 
L 358.02018 17.083636 
L 358.262507 22.797017 
L 358.504835 20.955849 
L 358.747163 21.804962 
L 358.98949 22.223119 
L 359.231818 21.811363 
L 359.231818 21.811363 
" style="fill:none;stroke:#1f77b4;stroke-linecap:square;stroke-width:1.5;"/>
   </g>
   <g id="line2d_14">
    <path clip-path="url(#p1805991216)" d="M 79.100955 181.61171 
L 79.343283 182.888109 
L 79.585611 183.497231 
L 79.827939 183.571597 
L 80.312594 181.524375 
L 80.554922 181.336812 
L 81.039577 181.777058 
L 81.524233 181.488865 
L 81.766561 180.659067 
L 82.251216 177.382077 
L 82.493544 176.937938 
L 82.978199 180.225697 
L 83.94751 187.398552 
L 84.189838 187.740458 
L 85.401477 190.642232 
L 85.643804 190.550522 
L 86.370787 187.520668 
L 86.613115 187.831115 
L 86.855443 187.621116 
L 87.097771 186.375097 
L 87.824754 180.962248 
L 88.067082 182.513387 
L 88.794065 192.942151 
L 89.036393 194.499515 
L 89.27872 194.966285 
L 89.521048 194.768683 
L 89.763376 193.922452 
L 90.248031 191.087439 
L 90.732687 189.67395 
L 90.975014 189.667101 
L 91.217342 189.965802 
L 91.701998 190.044635 
L 91.944325 190.331773 
L 92.186653 189.865758 
L 92.671309 188.366313 
L 92.913636 188.220797 
L 93.155964 189.059841 
L 93.64062 191.064964 
L 93.882947 190.952536 
L 94.125275 189.855822 
L 94.852258 184.979018 
L 95.094586 183.855453 
L 95.579241 183.060722 
L 95.821569 182.982814 
L 96.063897 183.15867 
L 96.548552 184.071286 
L 96.79088 183.942242 
L 97.517863 182.076671 
L 97.760191 181.760625 
L 98.97183 183.113967 
L 99.214157 183.119163 
L 99.456485 182.503778 
L 99.941141 180.287002 
L 100.183468 178.925847 
L 100.425796 178.336882 
L 100.910452 178.800775 
L 101.395107 183.658711 
L 102.12209 190.884017 
L 102.364418 192.380154 
L 102.606746 192.941447 
L 102.849074 193.051284 
L 103.091401 192.858266 
L 103.333729 192.434505 
L 103.818384 190.500779 
L 104.30304 188.120779 
L 104.545368 187.794667 
L 105.030023 188.461318 
L 105.999334 190.975766 
L 106.241662 191.251498 
L 106.48399 190.840186 
L 107.210973 187.440989 
L 107.695628 185.40296 
L 107.937956 185.156931 
L 108.180284 185.69364 
L 108.664939 187.972945 
L 108.907267 188.342275 
L 109.391922 187.962398 
L 109.876578 188.265969 
L 110.118906 188.466019 
L 110.361233 188.929365 
L 111.088217 192.920743 
L 111.330544 193.48998 
L 111.572872 193.452022 
L 111.8152 194.095209 
L 112.299855 196.357364 
L 112.542183 196.805774 
L 112.784511 196.53865 
L 113.511494 193.943429 
L 113.996149 192.857523 
L 115.692444 186.170893 
L 116.177099 184.324229 
L 116.419427 183.840817 
L 116.661754 183.645233 
L 117.14641 183.584332 
L 117.388738 183.259848 
L 117.631065 181.690334 
L 118.358049 175.108137 
L 118.842704 174.304916 
L 120.054343 173.720782 
L 120.296671 173.793468 
L 120.781326 174.305476 
L 121.265981 174.576936 
L 122.47762 176.146241 
L 122.962276 175.889677 
L 123.446931 176.065702 
L 123.689259 175.817603 
L 124.416242 172.991731 
L 125.385553 176.006233 
L 125.627881 175.809881 
L 126.112536 174.889401 
L 126.354864 174.51925 
L 126.597192 173.943398 
L 127.081847 171.65421 
L 127.324175 171.574284 
L 127.80883 171.994372 
L 128.535814 173.634983 
L 128.778141 173.896937 
L 129.020469 173.986382 
L 129.505124 173.792921 
L 130.232108 171.762575 
L 130.474435 171.87973 
L 130.959091 172.719868 
L 131.201419 172.0759 
L 131.686074 169.560241 
L 132.413057 167.656048 
L 132.655385 168.061942 
L 133.624696 172.061928 
L 134.351679 177.194697 
L 134.594007 176.903834 
L 135.078662 173.274742 
L 135.32099 173.496069 
L 135.563318 175.393348 
L 136.047973 180.267274 
L 136.290301 180.410329 
L 137.017284 177.600878 
L 137.259612 176.95221 
L 137.50194 176.882974 
L 137.744268 177.141113 
L 137.986595 177.213135 
L 138.228923 176.932326 
L 138.471251 177.192327 
L 139.198234 180.212584 
L 139.440562 179.980266 
L 139.925217 177.069586 
L 140.409873 173.018868 
L 140.894528 170.56333 
L 141.136856 170.24464 
L 142.106167 171.969996 
L 143.317805 173.210428 
L 143.560133 174.083992 
L 143.802461 174.181289 
L 144.044789 173.698619 
L 144.287116 172.786082 
L 145.0141 168.563741 
L 145.256427 167.950074 
L 145.498755 167.750167 
L 145.741083 167.743422 
L 146.710394 168.852559 
L 146.952721 167.804767 
L 147.679705 162.287029 
L 147.922032 162.362528 
L 148.891343 171.288513 
L 149.133671 171.293149 
L 149.375999 170.62194 
L 150.102982 167.333595 
L 150.829965 165.631991 
L 151.314621 165.438257 
L 151.556948 165.037479 
L 152.283932 163.303426 
L 152.526259 163.32805 
L 152.768587 163.482133 
L 153.010915 163.905047 
L 153.49557 163.332321 
L 153.737898 163.316187 
L 153.980226 163.547541 
L 154.222554 163.570068 
L 154.464881 163.267721 
L 154.949537 161.764617 
L 155.434192 160.211667 
L 155.918848 159.358665 
L 156.161175 159.032397 
L 156.403503 159.119394 
L 157.615142 166.379689 
L 157.85747 166.15534 
L 158.584453 162.982002 
L 158.826781 162.227273 
L 159.069108 161.918089 
L 159.311436 162.234812 
L 160.280747 165.226709 
L 160.523075 165.311895 
L 160.765402 165.234821 
L 161.734713 161.1219 
L 161.977041 160.792155 
L 162.219369 159.530041 
L 162.704024 155.545395 
L 162.946352 154.429553 
L 164.157991 142.177265 
L 164.642646 141.749833 
L 164.884974 141.725756 
L 165.369629 142.015381 
L 165.611957 141.987085 
L 165.854285 141.507905 
L 166.096613 140.479476 
L 166.581268 142.46525 
L 166.823596 142.402212 
L 167.308251 139.078618 
L 168.035235 133.082182 
L 168.277562 132.300056 
L 168.762218 134.162072 
L 169.004545 134.01321 
L 169.246873 132.556593 
L 169.731529 131.303165 
L 169.973856 130.774451 
L 170.70084 138.962088 
L 171.185495 138.691878 
L 171.427823 138.879831 
L 172.154806 135.576525 
L 172.397134 135.080495 
L 172.639461 134.296507 
L 172.881789 134.95791 
L 173.366445 140.098271 
L 174.093428 146.392848 
L 174.335756 146.377066 
L 174.578083 145.696287 
L 175.062739 141.684373 
L 175.789722 136.692654 
L 176.03205 135.72846 
L 176.274378 135.409328 
L 176.516705 134.641786 
L 177.001361 132.61381 
L 177.486016 131.781564 
L 177.970672 137.056294 
L 178.212999 139.873493 
L 178.697655 141.450402 
L 178.939983 141.719271 
L 179.18231 141.549913 
L 179.424638 141.881871 
L 179.666966 141.90975 
L 179.909294 141.763388 
L 180.151621 141.790655 
L 180.393949 142.293587 
L 180.878605 145.523517 
L 181.120932 145.143535 
L 181.605588 142.909935 
L 181.847915 143.388595 
L 182.332571 146.257802 
L 182.574899 145.64963 
L 183.059554 143.044422 
L 183.301882 143.490397 
L 183.54421 144.606552 
L 183.786537 144.907897 
L 184.028865 143.989187 
L 184.513521 140.459514 
L 184.755848 140.88429 
L 184.998176 142.04938 
L 185.725159 142.894974 
L 185.967487 142.622563 
L 186.209815 141.897015 
L 186.452142 142.122249 
L 187.179126 145.006183 
L 187.906109 141.784496 
L 188.390764 143.732611 
L 188.633092 142.385649 
L 189.117748 137.413175 
L 189.360075 136.486041 
L 189.602403 136.427952 
L 189.844731 137.187694 
L 190.087058 136.399109 
L 190.571714 132.779145 
L 190.814042 132.634436 
L 191.541025 129.613124 
L 192.02568 128.977087 
L 192.268008 128.743454 
L 192.752664 130.277614 
L 193.237319 133.638606 
L 193.479647 133.663321 
L 193.721975 133.041984 
L 194.20663 124.16358 
L 194.448958 122.309155 
L 194.691285 121.643494 
L 194.933613 121.734671 
L 195.175941 121.45653 
L 195.418269 121.849885 
L 195.660596 121.393688 
L 195.902924 120.048302 
L 196.145252 120.015488 
L 196.629907 121.960933 
L 197.114563 122.724491 
L 197.356891 121.675396 
L 197.599218 121.747119 
L 197.841546 122.497108 
L 198.083874 121.495673 
L 199.053185 116.158349 
L 199.780168 125.20395 
L 200.022496 127.362102 
L 200.264823 127.475142 
L 200.507151 125.223899 
L 200.991807 119.320554 
L 201.234134 118.251224 
L 201.71879 119.50447 
L 201.961118 119.323184 
L 202.203445 117.351383 
L 202.445773 114.260406 
L 202.688101 112.878507 
L 202.930428 113.688968 
L 203.415084 116.300518 
L 204.384395 118.747762 
L 204.626723 116.831745 
L 205.111378 109.822219 
L 205.353706 107.412686 
L 205.596034 106.190639 
L 205.838361 106.389687 
L 206.080689 107.397841 
L 206.323017 107.913885 
L 207.05 101.773574 
L 207.534655 100.882535 
L 208.261639 93.691359 
L 208.988622 91.713516 
L 209.23095 92.851261 
L 209.473277 93.159064 
L 209.715605 92.8485 
L 209.957933 100.065251 
L 210.200261 112.464812 
L 210.442588 116.031831 
L 210.684916 117.321173 
L 210.927244 122.703682 
L 211.169572 122.461794 
L 211.654227 116.627385 
L 212.38121 109.481862 
L 212.865866 107.459798 
L 213.108193 107.372527 
L 213.350521 105.769783 
L 213.592849 102.538486 
L 213.835177 103.319466 
L 214.077504 106.877214 
L 214.319832 112.872725 
L 214.56216 114.769809 
L 214.804488 112.499267 
L 216.016126 95.161257 
L 216.500782 100.315785 
L 216.743109 100.814901 
L 216.985437 102.080674 
L 217.470093 110.495876 
L 217.71242 111.396889 
L 217.954748 115.337288 
L 218.197076 121.266832 
L 218.439404 121.479917 
L 218.924059 127.241119 
L 219.166387 125.324008 
L 219.408715 124.890339 
L 219.651042 125.115638 
L 220.135698 123.396455 
L 220.620353 126.466597 
L 220.862681 125.084282 
L 221.105009 124.347366 
L 221.831992 121.322018 
L 222.316647 114.102038 
L 222.558975 111.911579 
L 222.801303 112.451426 
L 223.043631 114.332102 
L 223.528286 126.191322 
L 223.770614 125.482793 
L 224.012942 123.801451 
L 224.255269 124.08407 
L 224.497597 122.810094 
L 224.739925 122.846216 
L 224.982252 123.642015 
L 225.22458 121.900383 
L 226.436219 108.374015 
L 226.678547 108.18489 
L 227.163202 113.748815 
L 227.647858 115.863879 
L 228.374841 112.645812 
L 228.617169 111.85681 
L 228.859496 111.910823 
L 229.101824 114.080995 
L 229.344152 114.970575 
L 229.586479 112.302694 
L 230.071135 99.468187 
L 230.313463 97.140897 
L 230.55579 98.411462 
L 231.040446 104.099222 
L 231.282774 103.493877 
L 231.767429 99.721274 
L 232.73674 92.280761 
L 232.979068 91.915688 
L 233.463723 95.459659 
L 233.948379 102.580441 
L 234.190706 105.117664 
L 234.433034 104.635033 
L 234.675362 102.920225 
L 234.91769 100.335734 
L 235.160017 102.091612 
L 235.402345 101.755708 
L 236.129328 94.619795 
L 236.371656 94.439291 
L 236.856312 88.35992 
L 237.098639 88.465968 
L 237.583295 86.64993 
L 238.06795 89.290674 
L 238.310278 87.917188 
L 238.794933 73.450507 
L 239.037261 70.218845 
L 239.279589 74.674455 
L 239.521917 81.911311 
L 239.764244 85.276313 
L 240.006572 83.978039 
L 240.2489 80.741871 
L 240.491228 79.312522 
L 240.733555 79.551285 
L 241.460539 75.27467 
L 241.945194 79.019719 
L 242.187522 78.38445 
L 242.914505 85.253161 
L 243.641488 83.611586 
L 243.883816 83.497335 
L 244.126144 81.750312 
L 244.368471 78.210196 
L 244.610799 77.923513 
L 244.853127 76.771393 
L 245.095455 77.346919 
L 246.064765 91.552309 
L 246.307093 92.641405 
L 246.549421 92.848344 
L 246.791749 90.751249 
L 247.034076 91.622599 
L 247.518732 92.476657 
L 247.76106 95.214672 
L 248.003387 96.236889 
L 248.245715 95.065002 
L 248.488043 91.800031 
L 248.730371 92.285631 
L 248.972698 93.100076 
L 249.942009 87.390231 
L 250.184337 87.310227 
L 250.426665 87.667018 
L 250.668992 87.426249 
L 251.395976 98.091392 
L 251.638303 99.807086 
L 252.122959 111.131197 
L 252.849942 103.389548 
L 253.09227 101.996373 
L 253.576925 109.130567 
L 253.819253 109.24039 
L 254.061581 107.827396 
L 254.303909 113.343715 
L 254.546236 113.21889 
L 254.788564 112.701987 
L 255.273219 121.212689 
L 255.757875 112.469682 
L 256.000203 112.334779 
L 256.24253 115.899272 
L 256.484858 117.465946 
L 256.969514 110.141429 
L 257.211841 111.689379 
L 257.696497 121.357202 
L 257.938825 121.727873 
L 258.42348 116.012794 
L 258.908135 123.42281 
L 259.150463 123.814498 
L 259.392791 123.920936 
L 259.877446 119.387667 
L 260.362102 110.917514 
L 260.846757 106.752702 
L 261.331413 116.526936 
L 261.573741 120.514083 
L 261.816068 121.626618 
L 262.058396 119.815555 
L 262.543052 114.134722 
L 262.785379 115.997038 
L 263.027707 121.444134 
L 263.270035 123.522607 
L 263.512362 123.77947 
L 263.75469 124.574774 
L 264.239346 132.473633 
L 264.481673 128.023584 
L 264.724001 121.383479 
L 264.966329 118.130462 
L 265.208657 118.425635 
L 265.450984 119.097 
L 265.693312 122.480675 
L 265.93564 120.125624 
L 266.420295 113.222146 
L 266.662623 112.375953 
L 266.904951 113.224724 
L 267.389606 118.939882 
L 267.389606 118.939882 
" style="fill:none;stroke:#ff7f0e;stroke-linecap:square;stroke-width:1.5;"/>
   </g>
   <g id="line2d_15">
    <path clip-path="url(#p1805991216)" d="M 292.107035 111.556715 
L 292.349363 112.234695 
L 292.591691 112.352046 
L 292.834019 112.729358 
L 293.076346 112.330742 
L 293.561002 109.253829 
L 293.803329 107.922089 
L 294.045657 105.880701 
L 294.287985 105.605946 
L 295.014968 115.678036 
L 295.257296 114.950001 
L 296.226607 102.729694 
L 296.711262 105.615634 
L 297.680573 99.893835 
L 297.922901 99.273228 
L 298.407556 100.372221 
L 298.649884 102.328708 
L 298.892212 102.694197 
L 299.13454 101.011475 
L 299.376867 100.510041 
L 299.619195 101.279927 
L 300.103851 79.690095 
L 300.346178 79.351352 
L 300.830834 88.243898 
L 301.073162 91.211171 
L 301.315489 96.814109 
L 301.557817 97.398958 
L 301.800145 94.697326 
L 302.042472 88.748692 
L 302.2848 87.507972 
L 302.527128 90.882194 
L 302.769456 91.054209 
L 303.254111 95.678265 
L 303.496439 94.483121 
L 303.738767 90.365864 
L 303.981094 89.89813 
L 304.46575 90.572385 
L 304.708078 95.420438 
L 304.950405 96.69767 
L 305.435061 94.055572 
L 305.677389 90.79659 
L 305.919716 89.388206 
L 306.162044 92.304277 
L 306.404372 93.452544 
L 306.889027 86.793037 
L 307.131355 86.712278 
L 307.373683 87.503154 
L 307.61601 86.253893 
L 308.100666 80.812839 
L 308.342994 81.353363 
L 308.585321 82.76904 
L 308.827649 83.068275 
L 309.069977 81.903029 
L 309.312305 82.072778 
L 309.554632 81.960871 
L 309.79696 83.804774 
L 310.281616 79.758302 
L 310.766271 84.125078 
L 311.008599 87.040447 
L 311.250926 91.750393 
L 311.493254 92.395611 
L 311.97791 85.640708 
L 312.220237 87.766059 
L 312.462565 88.746816 
L 312.704893 87.753923 
L 313.431876 82.030901 
L 313.916532 78.73598 
L 314.643515 81.208668 
L 315.12817 77.078727 
L 315.370498 75.832096 
L 315.612826 72.486626 
L 316.339809 77.902809 
L 316.582137 75.902647 
L 316.824464 71.949982 
L 317.066792 69.879426 
L 317.30912 70.045529 
L 317.793775 67.666596 
L 318.278431 70.100688 
L 318.520759 70.422294 
L 318.763086 68.379916 
L 319.005414 63.719269 
L 319.247742 63.366958 
L 319.974725 69.798145 
L 320.217053 70.265124 
L 320.944036 65.595623 
L 321.186364 67.150369 
L 321.428691 70.391016 
L 321.671019 71.004748 
L 322.155675 63.325107 
L 322.398002 60.930991 
L 322.64033 60.275356 
L 323.124986 61.105949 
L 323.609641 60.14699 
L 323.851969 58.154328 
L 324.094296 57.769724 
L 324.336624 58.568335 
L 324.578952 58.423249 
L 325.063607 59.005052 
L 325.305935 59.847364 
L 325.548263 57.726128 
L 325.790591 57.308891 
L 326.275246 61.498444 
L 326.517574 57.472338 
L 326.759902 55.724065 
L 327.002229 51.282909 
L 327.244557 49.710661 
L 327.486885 49.111071 
L 328.213868 43.136758 
L 328.456196 43.803904 
L 328.698523 43.468521 
L 328.940851 41.350567 
L 329.183179 36.267397 
L 329.425507 33.845519 
L 329.667834 33.87164 
L 329.910162 34.426592 
L 330.15249 37.128512 
L 330.394818 42.994381 
L 330.637145 41.997425 
L 330.879473 38.619713 
L 331.121801 37.643878 
L 331.364129 41.249936 
L 331.606456 36.291096 
L 332.091112 40.729126 
L 332.818095 29.888166 
L 333.060423 28.49736 
L 333.30275 27.991265 
L 333.545078 28.808263 
L 333.787406 28.483714 
L 334.029734 27.769247 
L 334.272061 26.569416 
L 334.514389 27.120227 
L 334.756717 32.343092 
L 335.241372 52.056806 
L 335.4837 51.39604 
L 335.726028 59.820774 
L 335.968356 60.425521 
L 336.210683 51.349736 
L 336.453011 54.079729 
L 336.695339 52.681944 
L 337.179994 68.986616 
L 337.422322 82.022931 
L 337.66465 78.190559 
L 337.906977 80.410577 
L 338.149305 96.725354 
L 338.391633 92.146118 
L 338.633961 101.838265 
L 339.118616 106.861171 
L 339.360944 105.16113 
L 339.603272 108.554155 
L 339.845599 113.850383 
L 340.572583 98.249448 
L 340.81491 100.101841 
L 341.057238 100.755054 
L 341.299566 98.532614 
L 341.784221 107.136316 
L 342.026549 110.294354 
L 342.753532 86.600891 
L 342.99586 85.698889 
L 343.238188 86.970417 
L 343.722843 78.446068 
L 343.965171 78.143187 
L 344.207499 76.35999 
L 344.449826 77.132819 
L 344.692154 84.480436 
L 344.934482 82.945196 
L 345.419137 73.341387 
L 345.661465 73.553976 
L 345.903793 80.021051 
L 346.388448 60.597978 
L 346.630776 62.317604 
L 346.873104 65.951345 
L 347.357759 61.729056 
L 348.084742 50.554015 
L 348.32707 53.289243 
L 348.569398 59.613263 
L 348.811726 60.719834 
L 349.296381 52.457349 
L 349.538709 52.743562 
L 349.781036 49.555184 
L 350.023364 48.044684 
L 350.265692 47.564371 
L 350.50802 46.650181 
L 350.750347 46.41199 
L 350.992675 46.764692 
L 351.477331 43.250541 
L 351.719658 41.990237 
L 351.961986 42.100764 
L 352.204314 45.946366 
L 352.446642 44.109286 
L 352.688969 40.729647 
L 353.173625 37.499496 
L 353.415953 46.03361 
L 353.65828 49.157376 
L 353.900608 46.647759 
L 354.142936 40.858743 
L 354.385263 37.902434 
L 354.869919 44.706454 
L 355.112247 42.013311 
L 355.354574 37.691694 
L 355.596902 40.784337 
L 355.83923 42.394087 
L 356.081558 53.391332 
L 356.323885 53.120744 
L 357.050869 34.952767 
L 357.293196 30.738707 
L 357.535524 31.715766 
L 357.777852 31.863066 
L 358.02018 29.499369 
L 358.262507 25.429119 
L 358.504835 27.528427 
L 358.747163 28.277947 
L 358.98949 28.163358 
L 358.98949 28.163358 
" style="fill:none;stroke:#2ca02c;stroke-linecap:square;stroke-width:1.5;"/>
   </g>
   <g id="patch_3">
    <path d="M 39.65 224.64 
L 39.65 7.2 
" style="fill:none;stroke:#000000;stroke-linecap:square;stroke-linejoin:miter;stroke-width:0.8;"/>
   </g>
   <g id="patch_4">
    <path d="M 374.45 224.64 
L 374.45 7.2 
" style="fill:none;stroke:#000000;stroke-linecap:square;stroke-linejoin:miter;stroke-width:0.8;"/>
   </g>
   <g id="patch_5">
    <path d="M 39.65 224.64 
L 374.45 224.64 
" style="fill:none;stroke:#000000;stroke-linecap:square;stroke-linejoin:miter;stroke-width:0.8;"/>
   </g>
   <g id="patch_6">
    <path d="M 39.65 7.2 
L 374.45 7.2 
" style="fill:none;stroke:#000000;stroke-linecap:square;stroke-linejoin:miter;stroke-width:0.8;"/>
   </g>
  </g>
 </g>
 <defs>
  <clipPath id="p1805991216">
   <rect height="217.44" width="334.8" x="39.65" y="7.2"/>
  </clipPath>
 </defs>
</svg>
